<svg width="12" height="12" viewBox="0 0 12 12" fill="none" xmlns="http://www.w3.org/2000/svg">
<path d="M0.968997 0.968997C1.03867 0.899153 1.12143 0.843738 1.21255 0.805928C1.30366 0.768119 1.40135 0.748657 1.5 0.748657C1.59865 0.748657 1.69633 0.768119 1.78745 0.805928C1.87857 0.843738 1.96133 0.899153 2.031 0.968997L6 4.9395L9.969 0.968997C10.0387 0.899266 10.1215 0.843951 10.2126 0.806212C10.3037 0.768474 10.4014 0.74905 10.5 0.74905C10.5986 0.74905 10.6963 0.768474 10.7874 0.806212C10.8785 0.843951 10.9613 0.899266 11.031 0.968997C11.1007 1.03873 11.156 1.12151 11.1938 1.21262C11.2315 1.30373 11.2509 1.40138 11.2509 1.5C11.2509 1.59861 11.2315 1.69626 11.1938 1.78737C11.156 1.87848 11.1007 1.96127 11.031 2.031L7.0605 6L11.031 9.969C11.1007 10.0387 11.156 10.1215 11.1938 10.2126C11.2315 10.3037 11.2509 10.4014 11.2509 10.5C11.2509 10.5986 11.2315 10.6963 11.1938 10.7874C11.156 10.8785 11.1007 10.9613 11.031 11.031C10.9613 11.1007 10.8785 11.156 10.7874 11.1938C10.6963 11.2315 10.5986 11.2509 10.5 11.2509C10.4014 11.2509 10.3037 11.2315 10.2126 11.1938C10.1215 11.156 10.0387 11.1007 9.969 11.031L6 7.0605L2.031 11.031C1.96127 11.1007 1.87848 11.156 1.78737 11.1938C1.69626 11.2315 1.59861 11.2509 1.5 11.2509C1.40138 11.2509 1.30373 11.2315 1.21262 11.1938C1.12151 11.156 1.03873 11.1007 0.968997 11.031C0.899266 10.9613 0.843951 10.8785 0.806212 10.7874C0.768474 10.6963 0.74905 10.5986 0.74905 10.5C0.74905 10.4014 0.768474 10.3037 0.806212 10.2126C0.843951 10.1215 0.899266 10.0387 0.968997 9.969L4.9395 6L0.968997 2.031C0.899153 1.96133 0.843738 1.87857 0.805928 1.78745C0.768119 1.69633 0.748657 1.59865 0.748657 1.5C0.748657 1.40135 0.768119 1.30366 0.805928 1.21255C0.843738 1.12143 0.899153 1.03867 0.968997 0.968997Z" fill="black"/>
</svg>
