<svg width="192" height="44" viewBox="0 0 192 44" fill="none" xmlns="http://www.w3.org/2000/svg">
<rect x="15.1184" y="15.1185" width="13.6493" height="13.6493" rx="2.19905" fill="black"/>
<rect y="37.9337" width="43.9811" height="6.06635" rx="3.03318" fill="black"/>
<rect x="14.6919" width="13.6493" height="6.06635" rx="3.03318" fill="black"/>
<rect x="6.82471" y="7.58295" width="13.6493" height="6.06635" rx="3.03318" fill="black"/>
<rect x="21.9905" y="7.58295" width="13.6493" height="6.06635" rx="3.03318" fill="black"/>
<rect x="23.1252" y="30.3448" width="18.1054" height="6.03513" rx="3.01757" fill="black"/>
<rect x="2.76367" y="30.3448" width="18.8386" height="6.03513" rx="3.01757" fill="black"/>
<rect x="30.3318" y="15.1659" width="10.9005" height="6.06635" rx="3.03318" fill="black"/>
<rect x="2.74878" y="15.1659" width="10.9005" height="6.06635" rx="3.03318" fill="black"/>
<rect y="22.7488" width="13.6493" height="6.06635" rx="3.03318" fill="black"/>
<rect x="30.3318" y="22.7488" width="13.6493" height="6.06635" rx="3.03318" fill="black"/>
<path d="M18.9459 20.3344C19.2853 20.3344 19.5819 20.4017 19.8357 20.5362C20.0896 20.6708 20.2853 20.8604 20.4229 21.105C20.5636 21.3466 20.6339 21.6264 20.6339 21.9445C20.6339 22.2594 20.5636 22.5392 20.4229 22.7839C20.2853 23.0285 20.088 23.2181 19.8312 23.3527C19.5773 23.4872 19.2822 23.5545 18.9459 23.5545H17.7395V20.3344H18.9459ZM18.8954 22.8756C19.192 22.8756 19.4229 22.7946 19.588 22.6325C19.7532 22.4704 19.8357 22.2411 19.8357 21.9445C19.8357 21.6478 19.7532 21.4169 19.588 21.2518C19.4229 21.0867 19.192 21.0041 18.8954 21.0041H18.5239V22.8756H18.8954ZM21.8566 20.9628V21.6142H22.9071V22.2197H21.8566V22.9261H23.0447V23.5545H21.0722V20.3344H23.0447V20.9628H21.8566ZM26.5768 20.3344L25.4346 23.5545H24.453L23.3108 20.3344H24.1456L24.9438 22.7655L25.7465 20.3344H26.5768Z" fill="white"/>
<path d="M58.6362 31.892H63.8681V34.9751H54.6422V18.5787H58.6362V31.892ZM73.5276 35.1386C71.9861 35.1386 70.5691 34.7805 69.2767 34.0642C67.9998 33.3479 66.9799 32.3514 66.2169 31.0745C65.4695 29.7821 65.0958 28.334 65.0958 26.7302C65.0958 25.1264 65.4695 23.686 66.2169 22.4092C66.9799 21.1324 67.9998 20.1358 69.2767 19.4195C70.5691 18.7033 71.9861 18.3451 73.5276 18.3451C75.0692 18.3451 76.4783 18.7033 77.7552 19.4195C79.0476 20.1358 80.0597 21.1324 80.7916 22.4092C81.539 23.686 81.9127 25.1264 81.9127 26.7302C81.9127 28.334 81.539 29.7821 80.7916 31.0745C80.0441 32.3514 79.032 33.3479 77.7552 34.0642C76.4783 34.7805 75.0692 35.1386 73.5276 35.1386ZM73.5276 31.495C74.8356 31.495 75.8789 31.059 76.6574 30.187C77.4515 29.315 77.8486 28.1627 77.8486 26.7302C77.8486 25.2821 77.4515 24.1298 76.6574 23.2734C75.8789 22.4014 74.8356 21.9654 73.5276 21.9654C72.2041 21.9654 71.1452 22.3936 70.3511 23.25C69.5725 24.1065 69.1832 25.2665 69.1832 26.7302C69.1832 28.1783 69.5725 29.3384 70.3511 30.2104C71.1452 31.0668 72.2041 31.495 73.5276 31.495ZM95.9298 18.5787V21.7786H91.5855V34.9751H87.5915V21.7786H83.2471V18.5787H95.9298ZM101.928 21.7786V25.0952H107.277V28.1783H101.928V31.7753H107.978V34.9751H97.9343V18.5787H107.978V21.7786H101.928ZM125.239 34.9751H121.245L114.565 24.8617V34.9751H110.571V18.5787H114.565L121.245 28.7389V18.5787H125.239V34.9751ZM139.018 23.7639C138.722 23.2189 138.294 22.8063 137.733 22.526C137.189 22.2301 136.542 22.0822 135.795 22.0822C134.502 22.0822 133.467 22.5104 132.688 23.3668C131.91 24.2077 131.521 25.3366 131.521 26.7536C131.521 28.264 131.925 29.4474 132.735 30.3038C133.56 31.1446 134.689 31.565 136.122 31.565C137.103 31.565 137.928 31.3159 138.598 30.8176C139.283 30.3193 139.781 29.6031 140.093 28.6688H135.024V25.7259H143.713V29.4396C143.417 30.4361 142.911 31.3626 142.195 32.219C141.494 33.0754 140.599 33.7684 139.509 34.2978C138.419 34.8272 137.189 35.0919 135.818 35.0919C134.199 35.0919 132.751 34.7416 131.474 34.0409C130.213 33.3246 129.224 32.3358 128.508 31.0745C127.807 29.8133 127.457 28.373 127.457 26.7536C127.457 25.1341 127.807 23.6938 128.508 22.4326C129.224 21.1557 130.213 20.1669 131.474 19.4662C132.735 18.75 134.175 18.3918 135.795 18.3918C137.757 18.3918 139.407 18.8668 140.747 19.8166C142.101 20.7664 142.997 22.0822 143.433 23.7639H139.018ZM152.068 18.5787C153.796 18.5787 155.307 18.9213 156.599 19.6064C157.892 20.2915 158.888 21.2569 159.589 22.5026C160.305 23.7327 160.663 25.1575 160.663 26.7769C160.663 28.3807 160.305 29.8055 159.589 31.0512C158.888 32.2969 157.884 33.2623 156.576 33.9474C155.283 34.6326 153.781 34.9751 152.068 34.9751H145.925V18.5787H152.068ZM151.811 31.5183C153.321 31.5183 154.497 31.1057 155.338 30.2804C156.179 29.4551 156.599 28.2873 156.599 26.7769C156.599 25.2665 156.179 24.0909 155.338 23.25C154.497 22.4092 153.321 21.9888 151.811 21.9888H149.919V31.5183H151.811ZM166.889 21.7786V25.0952H172.238V28.1783H166.889V31.7753H172.939V34.9751H162.895V18.5787H172.939V21.7786H166.889ZM190.924 18.5787L185.108 34.9751H180.11L174.294 18.5787H178.545L182.609 30.9578L186.696 18.5787H190.924Z" fill="black"/>
</svg>
