<svg width="24" height="24" viewBox="0 0 24 24" fill="none" xmlns="http://www.w3.org/2000/svg">
<path fill-rule="evenodd" clip-rule="evenodd" d="M12 0C15.1826 0 18.2348 1.26428 20.4853 3.51472C22.7357 5.76516 24 8.8174 24 12C24 15.1826 22.7357 18.2348 20.4853 20.4853C18.2348 22.7357 15.1826 24 12 24C8.8174 24 5.76516 22.7357 3.51472 20.4853C1.26428 18.2348 0 15.1826 0 12C0 8.8174 1.26428 5.76516 3.51472 3.51472C5.76516 1.26428 8.8174 0 12 0ZM21.0351 7.38462C19.851 5.08248 17.8362 3.31646 15.3988 2.44431C16.2185 3.99508 16.8111 5.65662 17.1582 7.38462H21.0351ZM22.1095 12.9138C22.1391 12.6101 22.1539 12.3052 22.1538 12C22.152 11.0631 22.0197 10.1311 21.7606 9.23077H17.4369C17.496 9.84185 17.5385 10.4566 17.5385 11.0769C17.5346 12.3173 17.4072 13.5541 17.1582 14.7692H21.7606C21.936 14.1618 22.0523 13.5415 22.1114 12.9138H22.1095ZM15.5834 12.9138L15.5945 12.8197C15.6575 12.2409 15.6901 11.6592 15.6923 11.0769C15.6799 10.4594 15.6331 9.84307 15.552 9.23077H8.448C8.36625 9.84299 8.31941 10.4594 8.30769 11.0769C8.3122 12.3199 8.45649 13.5585 8.73785 14.7692H15.2622C15.4043 14.1563 15.5114 13.5378 15.5834 12.9138ZM15.2289 7.38462C14.794 5.43203 14.009 3.57436 12.912 1.90154C12.6092 1.87569 12.3065 1.84615 12 1.84615C11.8077 1.84709 11.6155 1.85633 11.424 1.87385L11.088 1.90154L11.0769 1.92C9.98571 3.58793 9.20457 5.43915 8.77108 7.38462H15.2289ZM6.84185 7.38462C7.19597 5.65781 7.79657 3.9909 8.62523 2.43508C6.1772 3.30425 4.15285 5.07439 2.96492 7.38462H6.84185ZM2.23938 9.23077C1.98072 10.1312 1.84838 11.0632 1.84615 12C1.84838 12.9368 1.98072 13.8688 2.23938 14.7692H6.84185C6.59155 13.5543 6.46414 12.3173 6.46154 11.0769C6.46154 10.4566 6.504 9.84185 6.56308 9.23077H2.23938ZM7.32369 16.6154H2.96677C3.66464 17.9785 4.66102 19.1667 5.88173 20.0914C7.10244 21.0162 8.51603 21.6536 10.0172 21.9563C8.83567 20.3339 7.92594 18.53 7.32369 16.6154ZM12 21.4966C13.1805 20.0366 14.1033 18.3858 14.7286 16.6154H9.27138C9.89675 18.3858 10.8195 20.0365 12 21.4966ZM16.6763 16.6154C16.074 18.53 15.1643 20.3338 13.9828 21.9563C15.4839 21.6534 16.8974 21.0158 18.118 20.0911C19.3387 19.1664 20.3351 17.9784 21.0332 16.6154H16.6763Z" fill="#2E353A"/>
</svg>
