<svg width="1080" height="1080" viewBox="0 0 1080 1080" fill="none" xmlns="http://www.w3.org/2000/svg">
<rect width="1080" height="1080" rx="540" fill="white"/>
<rect x="441" y="159" width="198.074" height="88.0327" rx="32" fill="#1C1C1C"/>
<rect x="332" y="269" width="190" height="88" rx="32" fill="#1C1C1C"/>
<rect x="560" y="269" width="190" height="88" rx="32" fill="#1C1C1C"/>
<rect x="222" y="599" width="300" height="88" rx="32" fill="#1C1C1C"/>
<rect x="560" y="599" width="300" height="88" rx="32" fill="#1C1C1C"/>
<rect x="661.274" y="379" width="158.184" height="88.0327" rx="32" fill="#1C1C1C"/>
<rect x="261" y="379" width="158.184" height="88.0327" rx="32" fill="#1C1C1C"/>
<rect x="222" y="489" width="198.074" height="88.0327" rx="32" fill="#1C1C1C"/>
<rect x="662.164" y="489" width="198.074" height="88.0327" rx="32" fill="#1C1C1C"/>
<path d="M245.244 807.244H269.513V821.545H226.717V745.488H245.244V807.244ZM314.32 822.304C307.169 822.304 300.596 820.643 294.601 817.32C288.679 813.997 283.948 809.375 280.408 803.452C276.941 797.457 275.208 790.74 275.208 783.3C275.208 775.861 276.941 769.179 280.408 763.257C283.948 757.334 288.679 752.711 294.601 749.389C300.596 746.066 307.169 744.405 314.32 744.405C321.47 744.405 328.007 746.066 333.93 749.389C339.925 752.711 344.62 757.334 348.015 763.257C351.482 769.179 353.215 775.861 353.215 783.3C353.215 790.74 351.482 797.457 348.015 803.452C344.548 809.375 339.853 813.997 333.93 817.32C328.007 820.643 321.47 822.304 314.32 822.304ZM314.32 805.402C320.387 805.402 325.226 803.38 328.838 799.335C332.522 795.29 334.363 789.945 334.363 783.3C334.363 776.583 332.522 771.238 328.838 767.265C325.226 763.22 320.387 761.198 314.32 761.198C308.18 761.198 303.269 763.184 299.585 767.157C295.974 771.13 294.168 776.511 294.168 783.3C294.168 790.017 295.974 795.399 299.585 799.443C303.269 803.416 308.18 805.402 314.32 805.402ZM418.236 745.488V760.331H398.084V821.545H379.557V760.331H359.405V745.488H418.236ZM446.06 760.331V775.716H470.871V790.017H446.06V806.702H474.121V821.545H427.534V745.488H474.121V760.331H446.06ZM554.189 821.545H535.662L504.676 774.633V821.545H486.149V745.488H504.676L535.662 792.618V745.488H554.189V821.545ZM618.107 769.541C616.734 767.012 614.748 765.098 612.148 763.798C609.62 762.426 606.622 761.74 603.155 761.74C597.16 761.74 592.357 763.726 588.746 767.699C585.134 771.599 583.328 776.836 583.328 783.408C583.328 790.415 585.206 795.904 588.962 799.877C592.79 803.777 598.027 805.727 604.672 805.727C609.222 805.727 613.051 804.572 616.156 802.26C619.335 799.949 621.646 796.626 623.09 792.293H599.58V778.641H639.884V795.868C638.511 800.491 636.164 804.788 632.841 808.761C629.591 812.733 625.438 815.948 620.382 818.403C615.326 820.859 609.62 822.087 603.264 822.087C595.752 822.087 589.034 820.462 583.112 817.212C577.261 813.889 572.675 809.303 569.352 803.452C566.102 797.601 564.477 790.92 564.477 783.408C564.477 775.897 566.102 769.215 569.352 763.365C572.675 757.442 577.261 752.856 583.112 749.605C588.962 746.283 595.643 744.621 603.155 744.621C612.256 744.621 619.912 746.824 626.124 751.23C632.408 755.636 636.561 761.74 638.584 769.541H618.107ZM678.64 745.488C686.658 745.488 693.664 747.077 699.659 750.255C705.654 753.433 710.277 757.912 713.527 763.69C716.849 769.396 718.511 776.005 718.511 783.517C718.511 790.956 716.849 797.565 713.527 803.344C710.277 809.122 705.618 813.6 699.551 816.778C693.556 819.956 686.585 821.545 678.64 821.545H650.146V745.488H678.64ZM677.448 805.511C684.455 805.511 689.908 803.596 693.808 799.768C697.709 795.94 699.659 790.523 699.659 783.517C699.659 776.511 697.709 771.057 693.808 767.157C689.908 763.257 684.455 761.306 677.448 761.306H668.673V805.511H677.448ZM747.391 760.331V775.716H772.202V790.017H747.391V806.702H775.452V821.545H728.864V745.488H775.452V760.331H747.391ZM858.878 745.488L831.901 821.545H808.715L781.738 745.488H801.456L820.308 802.91L839.268 745.488H858.878Z" fill="#1C1C1C"/>
<rect x="457" y="392" width="167" height="167" rx="32" fill="#1C1C1C"/>
<path d="M547 509V491H595V509H547ZM520 473L483.82 437H509.26L539.02 466.7C542.5 470.24 542.5 476 539.02 479.42L509.44 509H484L520 473Z" fill="white"/>
</svg>
